<?xml version="1.0" standalone="no"?>
<!DOCTYPE svg PUBLIC "-//W3C//DTD SVG 20010904//EN"
 "http://www.w3.org/TR/2001/REC-SVG-20010904/DTD/svg10.dtd">
<svg version="1.0" xmlns="http://www.w3.org/2000/svg"
 width="629.000000pt" height="629.000000pt" viewBox="0 0 629.000000 629.000000"
 preserveAspectRatio="xMidYMid meet">
<metadata>
Created by potrace 1.11, written by Peter Selinger 2001-2013
</metadata>
<g transform="translate(0.000000,629.000000) scale(0.100000,-0.100000)"
fill="#000000" stroke="none">
<path d="M2520 6267 c-3 -3 -38 -8 -79 -11 -80 -8 -116 -26 -124 -64 -2 -13
20 -125 49 -250 30 -125 54 -235 54 -244 0 -12 -11 -19 -37 -23 -874 -140
-1661 -714 -2065 -1506 -68 -133 -118 -244 -118 -261 0 -8 -4 -18 -9 -23 -13
-15 -97 -279 -116 -365 -9 -41 -18 -84 -20 -95 -17 -72 -31 -175 -45 -302 -7
-77 -5 -494 4 -543 2 -14 7 -52 11 -85 3 -33 8 -67 10 -75 3 -8 7 -31 10 -50
3 -19 8 -47 11 -62 2 -15 17 -79 34 -141 152 -591 499 -1129 972 -1508 97 -77
300 -219 314 -219 3 0 18 -8 32 -18 135 -94 547 -265 741 -307 98 -22 215 -45
251 -50 25 -4 56 -9 70 -11 93 -13 200 -19 370 -19 216 0 311 7 480 35 30 5
69 12 86 15 48 8 221 53 312 82 57 18 89 34 103 52 13 16 33 27 52 29 57 5
245 42 317 62 25 7 50 13 55 14 100 20 371 127 520 206 294 155 498 309 725
545 96 100 144 157 224 267 232 317 380 638 466 1013 52 228 65 353 65 615 -1
242 -10 343 -52 550 -8 41 -17 86 -19 100 -33 175 -140 485 -244 705 -107 229
-298 532 -436 692 -11 12 -44 51 -74 87 -66 79 -247 258 -350 347 -484 419
-1112 706 -1740 795 -25 3 -56 8 -70 11 -31 6 -734 15 -740 10z m585 -141
c149 -14 213 -22 315 -41 41 -8 86 -16 100 -19 55 -9 241 -59 342 -92 312
-101 662 -279 916 -466 l53 -39 -29 -52 c-31 -55 -70 -127 -147 -272 -26 -49
-56 -103 -65 -120 -10 -16 -39 -70 -65 -120 -44 -82 -201 -374 -280 -520 -85
-158 -250 -463 -262 -488 -9 -16 -19 -24 -26 -20 -7 4 -49 31 -94 60 -46 29
-85 53 -88 53 -3 0 -38 15 -78 34 -116 53 -268 98 -392 114 -27 4 -123 7 -213
7 -136 0 -163 2 -167 15 -2 8 -17 74 -33 145 -60 267 -202 881 -212 915 -5 19
-41 175 -80 345 -39 171 -73 319 -76 330 -3 11 -7 31 -10 45 -2 14 -13 58 -23
98 -10 40 -15 74 -12 76 3 2 51 7 106 11 55 4 101 8 102 9 6 5 348 -2 418 -8z
m1896 -803 c158 -138 341 -337 468 -508 45 -60 86 -115 91 -122 6 -7 10 -15
10 -18 0 -4 14 -26 30 -50 209 -303 400 -802 465 -1211 9 -54 18 -110 20 -124
3 -14 7 -56 11 -95 3 -38 7 -86 9 -106 2 -35 1 -37 -34 -43 -20 -3 -47 -8 -61
-10 -14 -3 -105 -16 -203 -31 -98 -15 -187 -28 -197 -30 -10 -2 -40 -7 -67
-11 -26 -3 -57 -8 -68 -10 -11 -2 -40 -6 -65 -9 -25 -4 -67 -10 -95 -15 -27
-5 -66 -11 -85 -14 -42 -6 -304 -45 -340 -51 -26 -4 -194 -30 -265 -40 -22 -3
-49 -8 -61 -10 -18 -4 -21 1 -23 43 -1 26 -11 89 -21 140 -58 279 -183 515
-382 719 l-60 62 25 43 c29 50 12 19 379 703 157 292 311 577 342 635 31 58
69 129 84 158 14 28 29 52 33 52 4 0 31 -21 60 -47z m-1702 -1327 c12 -8 11
-70 -3 -206 -7 -63 -17 -174 -22 -235 -2 -33 -6 -78 -9 -100 -2 -22 -7 -70
-11 -107 l-6 -68 -52 -1 c-131 -2 -273 -49 -396 -132 -43 -29 -140 -122 -188
-180 -12 -15 -26 -26 -30 -23 -4 2 -53 7 -107 11 -55 3 -127 8 -160 10 -140
10 -265 19 -450 30 -136 8 -208 14 -213 19 -4 5 64 141 107 214 98 165 285
366 451 485 112 80 299 175 425 216 78 25 233 62 315 74 46 7 336 1 349 -7z
m243 -62 c182 -66 341 -167 483 -309 209 -208 329 -458 370 -770 14 -104 6
-230 -21 -340 -14 -54 -43 -144 -50 -154 -2 -2 -111 43 -242 99 l-239 103 3
81 c10 251 -150 492 -392 591 -56 23 -59 26 -58 57 1 41 13 193 18 233 3 17 7
66 11 110 8 87 10 112 21 225 3 41 7 81 7 88 0 17 5 16 89 -14z m-177 -819
c208 -71 354 -275 339 -472 -13 -169 -119 -294 -291 -344 -88 -25 -95 -35 -87
-134 3 -44 7 -82 9 -85 2 -3 6 -46 10 -95 4 -50 9 -93 11 -96 2 -3 6 -40 10
-82 6 -72 5 -76 -13 -73 -11 3 -44 7 -74 11 -98 12 -221 62 -319 127 -279 189
-419 543 -324 825 72 214 246 376 462 427 73 18 203 13 267 -9z m2738 -288
c-4 -74 -19 -223 -28 -267 -2 -13 -7 -42 -10 -65 -4 -22 -11 -58 -17 -80 -5
-22 -12 -50 -14 -62 -2 -12 -9 -34 -14 -48 -5 -14 -8 -25 -5 -25 13 0 -118
-346 -174 -460 -179 -357 -453 -694 -743 -913 l-48 -36 -244 247 c-135 136
-348 352 -474 481 l-230 235 83 80 c148 145 244 296 303 476 24 71 52 209 52
253 0 19 5 27 18 28 9 0 26 2 37 4 11 2 38 7 60 10 22 3 51 7 65 10 14 2 72
11 130 19 58 9 116 18 130 20 41 7 162 25 205 31 23 3 50 7 60 9 11 2 40 7 65
11 25 4 52 9 60 10 8 2 42 6 75 10 32 3 62 8 66 11 3 2 26 6 50 9 24 3 55 7
69 9 51 7 126 19 140 21 17 3 92 15 130 20 14 2 45 7 70 10 25 3 61 10 80 14
54 12 58 8 53 -72z m-4278 28 c103 -7 344 -24 450 -30 150 -9 240 -17 243 -20
2 -2 -6 -34 -18 -71 -86 -281 2 -614 224 -847 31 -33 56 -60 56 -61 0 -4 -349
-598 -388 -662 -18 -28 -32 -53 -32 -56 0 -4 -128 -219 -134 -225 -8 -9 -174
159 -245 247 -158 196 -242 345 -347 610 -41 106 -96 349 -109 490 -10 108 -5
299 10 369 3 14 7 42 9 61 3 19 14 75 27 123 l22 88 86 -6 c47 -3 113 -8 146
-10z m2140 -500 c61 -26 138 -60 173 -76 34 -16 73 -31 87 -35 14 -3 25 -12
25 -19 0 -19 -110 -163 -159 -208 -129 -119 -288 -208 -446 -249 -49 -13 -99
-24 -109 -24 -21 1 -20 -1 -30 106 -4 41 -9 84 -11 95 -3 11 -7 43 -9 70 -3
28 -8 74 -12 103 -4 37 -3 52 6 52 7 0 41 14 76 30 74 36 174 124 210 186 26
43 26 44 57 30 18 -7 82 -35 142 -61z m234 -825 c119 -120 332 -336 474 -479
l258 -259 -58 -38 c-74 -48 -305 -166 -380 -194 -238 -91 -395 -132 -664 -176
-61 -9 -392 -12 -464 -3 -148 19 -168 22 -290 51 -22 6 -42 10 -45 10 -27 0
-262 94 -365 144 -114 57 -325 187 -325 200 0 3 124 217 277 477 152 260 277
473 277 474 1 0 46 -21 101 -48 86 -42 133 -58 247 -86 56 -13 257 -12 338 3
105 19 238 63 327 108 37 19 70 35 72 36 3 0 102 -99 220 -220z"/>
</g>
</svg>
