<?xml version="1.0" encoding="UTF-8"?>
<svg width="30px" height="30px" viewBox="0 0 30 30" version="1.1" xmlns="http://www.w3.org/2000/svg" xmlns:xlink="http://www.w3.org/1999/xlink">
    <!-- Generator: Sketch 52.2 (67145) - http://www.bohemiancoding.com/sketch -->
    <title>Shape</title>
    <desc>Created with Sketch.</desc>
    <g id="Tablet" stroke="none" stroke-width="1" fill="none" fill-rule="evenodd">
        <g id="Desktop-HD" transform="translate(-537.000000, -549.000000)" fill="#666666" fill-rule="nonzero">
            <g id="Group-6" transform="translate(537.000000, 549.000000)">
                <path d="M27.9877291,7.50115093 C32.1303632,14.6738796 29.6712802,23.8457831 22.4980631,27.988084 C15.3254192,32.1299073 6.15305097,29.6716549 2.01223177,22.4984487 C-2.12992472,15.325529 0.328012068,6.15314791 7.50113359,2.01227979 C14.673682,-2.12992563 23.8463368,0.327944671 27.9877291,7.50115093 Z M21.748995,26.688928 C28.2045321,22.9616259 30.4168797,14.70727 26.6895141,8.25122669 C22.962256,1.79507593 14.7066005,-0.416975386 8.25117084,3.31097158 C1.79595606,7.03730657 -0.417036303,15.2933819 3.31086662,21.748458 C7.03790984,28.2048237 15.2939951,30.4170899 21.748995,26.688928 Z M19.4669386,14.5443694 L13.3145977,10.9561475 C12.753947,10.628823 12.3017297,10.890518 12.3048727,11.5390306 L12.3363774,18.6612945 C12.3392211,19.3096575 12.7969761,19.5735975 13.3592732,19.2488173 L19.4645439,15.7239051 C20.0262423,15.3997236 20.0274396,14.8716939 19.4669386,14.5443694 Z" id="Shape"></path>
            </g>
        </g>
    </g>
</svg>